<svg version="1.0" xmlns="http://www.w3.org/2000/svg" width="34" height="34" viewBox="0 0 512.000000 512.000000" preserveAspectRatio="xMidYMid meet">
<metadata>
Created by potrace 1.16, written by Peter Selinger 2001-2019
</metadata>
<g transform="translate(0.000000,512.000000) scale(0.100000,-0.100000)" fill="#efb100" stroke="none">
<path d="M2410 4959 c-643 -33 -1279 -353 -1693 -851 -335 -404 -528 -891 -556 -1405 -33 -588 134 -1136 490 -1609 l31 -42 -18 -33 c-11 -22 -19 -64 -22 -119 -3 -70 0 -95 18 -143 62 -164 261 -243 432 -173 l58 24 91 -60 c306 -202 681 -337 1044 -378 137 -15 447 -12 582 5 696 92 1311 474 1696 1057 208 314 333 648 382 1021 17 135 20 445 5 582 -41 362 -177 740 -376 1042 l-62 93 24 58 c70 171 -10 370 -173 432 -48 18 -73 21 -143 18 -55 -3 -97 -11 -119 -22 l-33 -18 -42 31 c-298 224 -634 377 -981 446 -219 43 -398 56 -635 44z m420 -180 c377 -45 789 -212 1081 -441 36 -28 37 -28 23 -65 -21 -59 -18 -173 7 -238 28 -75 99 -146 176 -175 47 -18 73 -21 138 -17 44 2 89 8 101 12 18 6 29 -6 81 -87 82 -128 114 -186 167 -306 88 -199 152 -435 177 -651 16 -139 7 -485 -16 -611 -130 -723 -570 -1317 -1211 -1638 -320 -160 -634 -233 -999 -233 -317 0 -584 54 -875 178 -123 52 -201 94 -328 176 -81 52 -93 63 -87 81 4 12 10 57 12 101 4 65 1 91 -17 138 -29 77 -100 148 -175 176 -65 25 -179 28 -238 7 l-38 -14 -39 53 c-235 318 -376 669 -431 1075 -15 114 -15 402 0 520 89 673 435 1233 990 1605 435 290 972 417 1501 354z m1488 -489 c130 -79 74 -280 -78 -280 -85 0 -150 65 -150 150 0 85 65 150 150 150 27 0 58 -8 78 -20z m-3280 -3280 c130 -79 74 -280 -78 -280 -85 0 -150 65 -150 150 0 85 65 150 150 150 27 0 58 -8 78 -20z"/>
<path d="M2296 4225 c-256 -42 -503 -143 -716 -293 -121 -85 -305 -270 -393 -392 -126 -178 -229 -415 -279 -643 -20 -89 -22 -131 -22 -337 0 -206 2 -248 22 -337 49 -226 153 -464 280 -643 86 -121 270 -306 392 -393 178 -126 416 -230 643 -279 140 -30 512 -33 652 -5 612 125 1102 558 1288 1142 63 195 72 263 72 520 0 201 -3 243 -23 332 -50 228 -153 465 -279 643 -87 122 -272 306 -393 392 -179 127 -416 231 -637 279 -129 28 -472 36 -607 14z m448 -199 c93 -46 197 -144 275 -260 52 -77 161 -289 161 -313 0 -10 -131 -13 -620 -13 -489 0 -620 3 -620 13 0 24 109 236 161 313 62 93 167 200 235 240 88 52 140 65 240 61 83 -3 99 -7 168 -41z m-759 -117 c-72 -96 -145 -231 -196 -361 l-43 -108 -208 0 -209 0 19 28 c79 109 237 259 367 347 70 46 296 165 317 165 4 0 -17 -32 -47 -71z m1215 20 c126 -60 180 -93 285 -175 81 -63 214 -195 274 -271 l33 -43 -210 0 -210 0 -13 38 c-42 130 -144 325 -229 437 -27 36 -46 65 -42 65 4 0 54 -23 112 -51z m-1504 -666 c-31 -105 -76 -427 -76 -550 l0 -73 -286 0 -287 0 7 71 c14 158 72 363 141 498 l35 71 236 0 c219 0 235 -1 230 -17z m1557 -40 c39 -140 77 -399 77 -520 l0 -63 -770 0 -770 0 0 60 c0 119 40 393 79 538 l12 42 678 0 678 0 16 -57z m672 -14 c69 -135 127 -340 141 -498 l7 -71 -287 0 -286 0 0 73 c0 123 -45 445 -76 550 -5 16 11 17 230 17 l236 0 35 -71z m-2305 -802 c0 -123 45 -445 76 -549 5 -17 -11 -18 -230 -18 l-236 0 -35 71 c-69 135 -127 340 -141 498 l-7 71 287 0 286 0 0 -73z m1710 11 c0 -122 -38 -381 -77 -520 l-16 -58 -677 0 -677 0 -16 58 c-39 139 -77 398 -77 520 l0 62 770 0 770 0 0 -62z m736 -9 c-14 -158 -72 -363 -141 -498 l-35 -71 -236 0 -236 0 6 23 c36 130 76 418 76 544 l0 73 286 0 287 0 -7 -71z m-2277 -836 c51 -131 124 -266 196 -362 30 -39 51 -71 47 -71 -21 0 -247 119 -317 165 -123 83 -293 244 -366 346 l-20 29 209 0 208 0 43 -107z m1391 95 c0 -7 -24 -63 -54 -125 -115 -238 -246 -387 -403 -461 -52 -24 -70 -27 -164 -27 -102 0 -108 1 -182 38 -94 47 -198 145 -276 261 -52 77 -161 289 -161 314 0 9 131 12 620 12 489 0 620 -3 620 -12z m588 -20 c-44 -64 -224 -241 -308 -304 -72 -54 -345 -204 -371 -204 -5 0 14 29 41 65 85 112 161 255 219 413 l23 62 210 0 209 0 -23 -32z"/>
</g>
</svg>